simulation
nRows=55
nColumns=15
endheader
time  TH_x TH_y TH_z SC_y  SC_z  SC_x  AC_y  AC_z  AC_x  GH_y  GH_z  GH_yy  EL_x  PS_y
0.000000  0.000000  0.000000  0.000000  -9.457221  16.583702  -19.317414  34.055451  20.443276  25.086232  11.200736  -10.893757  22.549178  21.999739  108.798463
0.000674  0.000000  0.000000  0.000000  -9.457221  16.583702  -15.388842  35.189753  18.210484  21.660457  11.200736  -10.893757  22.549178  21.999739  108.798463
0.001348  0.000000  0.000000  0.000000  -9.457221  16.583702  -11.460271  36.169715  15.918465  18.322531  11.200736  -10.893757  22.549178  21.999739  108.798463
0.002022  0.000000  0.000000  0.000000  -9.457221  16.583702  -7.531699  37.000410  13.576318  15.060738  11.200736  -10.893757  22.549178  21.999739  108.798463
0.002695  0.000000  0.000000  0.000000  -9.457221  16.583702  -3.603128  37.686486  11.192641  11.863278  11.200736  -10.893757  22.549178  21.999739  108.798463
0.003369  0.000000  0.000000  0.000000  -9.457221  16.583702  0.325443  38.231983  8.775557  8.718393  11.200736  -10.893757  22.549178  21.999739  108.798463
0.004043  0.000000  0.000000  0.000000  -9.457221  16.583702  4.254015  38.640234  6.332791  5.614423  11.200736  -10.893757  22.549178  21.999739  108.798463
0.004717  0.000000  0.000000  0.000000  -9.457221  16.583702  8.182586  38.913800  3.871769  2.539800  11.200736  -10.893757  22.549178  21.999739  108.798463
0.005391  0.000000  0.000000  0.000000  -9.457221  16.583702  12.111158  39.054434  1.399698  -0.516955  11.200736  -10.893757  22.549178  21.999739  108.798463
0.006065  0.000000  0.000000  0.000000  -9.457221  16.583702  16.039729  39.063047  -1.076342  -3.567263  11.200736  -10.893757  22.549178  21.999739  108.798463
0.006739  0.000000  0.000000  0.000000  -9.457221  16.583702  19.968301  38.939687  -3.549333  -6.622531  11.200736  -10.893757  22.549178  21.999739  108.798463
0.007412  0.000000  0.000000  0.000000  -9.457221  16.583702  23.896872  38.683569  -6.012206  -9.694174  11.200736  -10.893757  22.549178  21.999739  108.798463
0.008086  0.000000  0.000000  0.000000  -9.457221  16.583702  27.825443  38.293028  -8.457764  -12.793655  11.200736  -10.893757  22.549178  21.999739  108.798463
0.008760  0.000000  0.000000  0.000000  -9.457221  16.583702  31.754015  37.765646  -10.878640  -15.932533  11.200736  -10.893757  22.549178  21.999739  108.798463
0.009434  0.000000  0.000000  0.000000  -9.457221  16.583702  35.682586  37.098141  -13.267130  -19.122467  11.200736  -10.893757  22.549178  21.999739  108.798463
0.010108  0.000000  0.000000  0.000000  -10.640642  16.302896  -19.317414  33.132171  9.083202  17.075363  75.610493  -11.661897  26.423662  17.606071  113.400338
0.010782  0.000000  0.000000  0.000000  -10.640642  16.302896  -15.388842  33.593644  6.922115  13.762124  75.610493  -11.661897  26.423662  17.606071  113.400338
0.011456  0.000000  0.000000  0.000000  -10.640642  16.302896  -11.460271  33.927266  4.738318  10.479235  75.610493  -11.661897  26.423662  17.606071  113.400338
0.012129  0.000000  0.000000  0.000000  -10.640642  16.302896  -7.531699  34.134399  2.539144  7.217117  75.610493  -11.661897  26.423662  17.606071  113.400338
0.012803  0.000000  0.000000  0.000000  -10.640642  16.302896  -3.603128  34.215876  0.331766  3.966084  75.610493  -11.661897  26.423662  17.606071  113.400338
0.013477  0.000000  0.000000  0.000000  -10.640642  16.302896  0.325443  34.172049  -1.876658  0.716523  75.610493  -11.661897  26.423662  17.606071  113.400338
0.014151  0.000000  0.000000  0.000000  -10.640642  16.302896  4.254015  34.002731  -4.079045  -2.541255  75.610493  -11.661897  26.423662  17.606071  113.400338
0.014825  0.000000  0.000000  0.000000  -10.640642  16.302896  8.182586  33.707220  -6.268222  -5.816889  75.610493  -11.661897  26.423662  17.606071  113.400338
0.015499  0.000000  0.000000  0.000000  -10.640642  16.302896  12.111158  33.284327  -8.436903  -9.120004  75.610493  -11.661897  26.423662  17.606071  113.400338
0.016173  0.000000  0.000000  0.000000  -10.640642  16.302896  16.039729  32.732361  -10.577657  -12.460166  75.610493  -11.661897  26.423662  17.606071  113.400338
0.016846  0.000000  0.000000  0.000000  -10.640642  16.302896  19.968301  32.049314  -12.682788  -15.846869  75.610493  -11.661897  26.423662  17.606071  113.400338
0.017520  0.000000  0.000000  0.000000  -10.640642  16.302896  23.896872  31.232833  -14.744350  -19.289440  75.610493  -11.661897  26.423662  17.606071  113.400338
0.018194  0.000000  0.000000  0.000000  -10.640642  16.302896  27.825443  30.280358  -16.754028  -22.797001  75.610493  -11.661897  26.423662  17.606071  113.400338
0.018868  0.000000  0.000000  0.000000  -10.640642  16.302896  31.754015  29.189352  -18.703213  -26.378260  75.610493  -11.661897  26.423662  17.606071  113.400338
0.019542  0.000000  0.000000  0.000000  -10.640642  16.302896  35.682586  27.957403  -20.582861  -30.041442  75.610493  -11.661897  26.423662  17.606071  113.400338
0.020216  0.000000  0.000000  0.000000  -9.805044  8.450031  -19.317414  35.850061  31.351591  27.045575  89.774213  -9.588170  -51.195562  12.850477  111.320187
0.020889  0.000000  0.000000  0.000000  -9.805044  8.450031  -15.388842  37.680737  28.999291  23.405203  89.774213  -9.588170  -51.195562  12.850477  111.320187
0.021563  0.000000  0.000000  0.000000  -9.805044  8.450031  -11.460271  39.301026  26.553353  19.929973  89.774213  -9.588170  -51.195562  12.850477  111.320187
0.022237  0.000000  0.000000  0.000000  -9.805044  8.450031  -7.531699  40.723293  24.026701  16.602277  89.774213  -9.588170  -51.195562  12.850477  111.320187
0.022911  0.000000  0.000000  0.000000  -9.805044  8.450031  -3.603128  41.959343  21.430981  13.404638  89.774213  -9.588170  -51.195562  12.850477  111.320187
0.023585  0.000000  0.000000  0.000000  -9.805044  8.450031  0.325443  43.020131  18.776719  10.319983  89.774213  -9.588170  -51.195562  12.850477  111.320187
0.024259  0.000000  0.000000  0.000000  -9.805044  8.450031  4.254015  43.915378  16.073434  7.331885  89.774213  -9.588170  -51.195562  12.850477  111.320187
0.024933  0.000000  0.000000  0.000000  -9.805044  8.450031  8.182586  44.653573  13.329814  4.424560  89.774213  -9.588170  -51.195562  12.850477  111.320187
0.025606  0.000000  0.000000  0.000000  -9.805044  8.450031  12.111158  45.241872  10.553853  1.582860  89.774213  -9.588170  -51.195562  12.850477  111.320187
0.026280  0.000000  0.000000  0.000000  -9.805044  8.450031  16.039729  45.686009  7.752968  -1.207737  89.774213  -9.588170  -51.195562  12.850477  111.320187
0.026954  0.000000  0.000000  0.000000  -9.805044  8.450031  19.968301  45.990397  4.934161  -3.961309  89.774213  -9.588170  -51.195562  12.850477  111.320187
0.027628  0.000000  0.000000  0.000000  -9.805044  8.450031  23.896872  46.158066  2.104112  -6.691533  89.774213  -9.588170  -51.195562  12.850477  111.320187
0.028302  0.000000  0.000000  0.000000  -9.805044  8.450031  27.825443  46.190685  -0.730689  -9.411853  89.774213  -9.588170  -51.195562  12.850477  111.320187
0.028976  0.000000  0.000000  0.000000  -9.805044  8.450031  31.754015  46.088580  -3.563843  -12.135609  89.774213  -9.588170  -51.195562  12.850477  111.320187
0.029650  0.000000  0.000000  0.000000  -9.805044  8.450031  35.682586  45.850733  -6.388916  -14.876176  89.774213  -9.588170  -51.195562  12.850477  111.320187
0.030323  0.000000  0.000000  0.000000  -12.370868  5.075885  -19.203271  40.028348  36.290387  27.150423  39.091465  -11.301489  43.562094  22.208783  106.853566
0.030997  0.000000  0.000000  0.000000  -12.370868  5.075885  -15.274699  42.103222  33.708617  23.534668  39.091465  -11.301489  43.562094  22.208783  106.853566
0.031671  0.000000  0.000000  0.000000  -12.370868  5.075885  -11.346128  43.924737  31.027733  20.133887  39.091465  -11.301489  43.562094  22.208783  106.853566
0.032345  0.000000  0.000000  0.000000  -12.370868  5.075885  -7.417556  45.514112  28.262636  16.922180  39.091465  -11.301489  43.562094  22.208783  106.853566
0.033019  0.000000  0.000000  0.000000  -12.370868  5.075885  -3.488985  46.890807  25.426295  13.875002  39.091465  -11.301489  43.562094  22.208783  106.853566
0.033693  0.000000  0.000000  0.000000  -12.370868  5.075885  0.439587  48.072165  22.530032  10.969456  39.091465  -11.301489  43.562094  22.208783  106.853566
0.034367  0.000000  0.000000  0.000000  -12.370868  5.075885  4.368158  49.073366  19.583786  8.184312  39.091465  -11.301489  43.562094  22.208783  106.853566
0.035040  0.000000  0.000000  0.000000  -12.370868  5.075885  8.296729  49.907299  16.596340  5.499991  39.091465  -11.301489  43.562094  22.208783  106.853566
0.035714  0.000000  0.000000  0.000000  -12.370868  5.075885  12.225301  50.584777  13.575523  2.898310  39.091465  -11.301489  43.562094  22.208783  106.853566
0.036388  0.000000  0.000000  0.000000  -12.370868  5.075885  16.153872  51.114551  10.528437  0.362361  39.091465  -11.301489  43.562094  22.208783  106.853566
